#!OML:ASF H:\Dans Jumps\Project 1\Capture day 1\Session 1\subject.ASF
:FULLY-SPECIFIED
:DEGREES
344
root 0.193955 23.9927 -2.70802 8.85111 2.89152 -1.09746
lowerback 5.05539 -0.383585 -1.02582
upperback 3.35493 -0.548438 0.811243
thorax 0.631002 -0.297127 1.43166
lowerneck -9.24409 -0.56332 -1.642
upperneck 29.2371 -1.01958 1.98024
head 10.9489 -0.406725 0.881827
rclavicle -1.35422e-014 -8.74653e-015
rhumerus -33.4525 -7.07191 -77.2256
rradius 33.7954
rwrist 25.9303
rhand -23.7651 -26.0016
rfingers 7.12502
rthumb 2.70422 -55.9642
lclavicle -1.35422e-014 -8.74653e-015
lhumerus -33.2998 -6.76201 83.8388
lradius 39.9686
lwrist 28.3952
lhand -25.7178 -10.3839
lfingers 7.12502
lthumb 0.818311 19.5943
rfemur -25.0296 -5.96162 19.9824
rtibia 23.0115
rfoot 13.6745 -5.49448
rtoes 9.83592
lfemur -29.854 8.43483 -15.4517
ltibia 19.2994
lfoot 19.2498 -0.569656
ltoes -0.230431
345
root 0.196366 23.8331 -2.52864 8.64595 2.90022 -1.12747
lowerback 4.92109 -0.365487 -0.944971
upperback 3.33876 -0.520434 0.808898
thorax 0.68729 -0.28215 1.38161
lowerneck -9.1774 -0.576312 -1.6401
upperneck 29.4239 -1.04741 2.00047
head 11.0076 -0.416652 0.887034
rclavicle -3.32964e-015 -4.64659e-015
rhumerus -33.7483 -6.87444 -77.2518
rradius 33.9474
rwrist 25.7894
rhand -23.7499 -25.9884
rfingers 7.12502
rthumb 2.71891 -55.9508
lclavicle -3.32964e-015 -4.64659e-015
lhumerus -33.9317 -6.94292 83.9253
lradius 40.4226
lwrist 28.6838
lhand -25.5635 -10.6531
lfingers 7.12502
lthumb 0.967299 19.3245
rfemur -24.6942 -5.85322 19.9243
rtibia 21.6242
rfoot 13.5634 -5.82706
rtoes 9.57121
lfemur -29.8128 8.3964 -15.4073
ltibia 18.9284
lfoot 19.0544 -0.675732
ltoes -0.331677
346
root 0.200031 23.6598 -2.3462 8.41096 2.88437 -1.13654
lowerback 4.7656 -0.337323 -0.873183
upperback 3.32638 -0.479512 0.802519
thorax 0.759061 -0.260906 1.33192
lowerneck -9.09932 -0.591373 -1.64444
upperneck 29.6169 -1.07377 2.0094
head 11.0666 -0.427869 0.889485
rclavicle 8.15638e-015 4.02539e-015
rhumerus -34.0448 -6.68435 -77.2485
rradius 34.1468
rwrist 25.5802
rhand -23.7301 -26.0095
rfingers 7.12502
rthumb 2.73806 -55.9717
lclavicle 8.15638e-015 4.02539e-015
lhumerus -34.5739 -7.12488 83.9752
lradius 40.9757
lwrist 29.0184
lhand -25.4084 -10.9161
lfingers 7.12502
lthumb 1.1171 19.0607
rfemur -24.3789 -5.82839 19.868
rtibia 20.4164
rfoot 13.4787 -6.16119
rtoes 9.30848
lfemur -29.6911 8.34944 -15.3874
ltibia 18.5795
lfoot 18.8905 -0.72173
ltoes -0.463853
347
root 0.205033 23.4733 -2.16104 8.15326 2.83457 -1.1333
lowerback 4.57663 -0.297322 -0.799819
upperback 3.32032 -0.4229 0.7929
thorax 0.855654 -0.231896 1.27738
lowerneck -9.01893 -0.604484 -1.64664
upperneck 29.8221 -1.09307 2.00164
head 11.1298 -0.437526 0.886447
rclavicle -6.14369e-015 4.05024e-015
rhumerus -34.3297 -6.50788 -77.2175
rradius 34.3864
rwrist 25.3062
rhand -23.7252 -26.0476
rfingers 7.12502
rthumb 2.74278 -56.0098
lclavicle -6.14369e-015 4.05024e-015
lhumerus -35.2192 -7.29973 83.9806
lradius 41.6369
lwrist 29.3715
lhand -25.252 -11.0922
lfingers 7.12502
lthumb 1.26821 18.8838
rfemur -24.0939 -5.85777 19.8163
rtibia 19.3935
rfoot 13.4568 -6.48336
rtoes 9.11906
lfemur -29.4922 8.28077 -15.3751
ltibia 18.2496
lfoot 18.8378 -0.671535
ltoes -0.581331
348
root 0.21128 23.2741 -1.97333 7.87994 2.74869 -1.10778
lowerback 4.35334 -0.245959 -0.734938
upperback 3.31144 -0.351588 0.777436
thorax 0.968317 -0.195632 1.22124
lowerneck -8.89522 -0.619205 -1.67097
upperneck 30.0198 -1.11342 2.00416
head 11.1819 -0.449098 0.890899
rclavicle 1.45361e-015 3.98812e-015
rhumerus -34.6069 -6.34812 -77.1557
rradius 34.6585
rwrist 24.9936
rhand -23.7411 -26.0901
rfingers 7.12502
rthumb 2.72735 -56.0525
lclavicle 1.45361e-015 3.98812e-015
lhumerus -35.8655 -7.46849 83.9373
lradius 42.3915
lwrist 29.7369
lhand -25.0844 -11.0968
lfingers 7.12502
lthumb 1.43009 18.8781
rfemur -23.8425 -5.90869 19.7491
rtibia 18.5537
rfoot 13.5111 -6.78013
rtoes 9.03099
lfemur -29.2205 8.19501 -15.3847
ltibia 17.9352
lfoot 18.9605 -0.520465
ltoes -0.622262
349
root 0.218539 23.0626 -1.7833 7.59673 2.62543 -1.06818
lowerback 4.09165 -0.183238 -0.670815
upperback 3.29656 -0.265318 0.757717
thorax 1.09612 -0.151841 1.16102
lowerneck -8.74869 -0.633819 -1.69868
upperneck 30.2315 -1.13243 2.00319
head 11.235 -0.460939 0.894989
rclavicle 1.89467e-016 -7.6237e-015
rhumerus -34.8693 -6.21326 -77.0629
rradius 34.9521
rwrist 24.6866
rhand -23.7754 -26.1361
rfingers 7.12502
rthumb 2.69428 -56.0988
lclavicle 1.89467e-016 -7.6237e-015
lhumerus -36.5145 -7.62542 83.8418
lradius 43.2379
lwrist 30.0999
lhand -24.9148 -11.0209
lfingers 7.12502
lthumb 1.59382 18.9529
rfemur -23.6246 -5.9406 19.6661
rtibia 17.8921
rfoot 13.6362 -7.05172
rtoes 9.06347
lfemur -28.8844 8.10366 -15.4112
ltibia 17.6438
lfoot 19.2821 -0.268365
ltoes -0.478711
350
root 0.226873 22.8391 -1.59083 7.3059 2.46629 -1.01613
lowerback 3.78763 -0.111667 -0.602018
upperback 3.27599 -0.167287 0.732119
thorax 1.24174 -0.102003 1.09239
lowerneck -8.57149 -0.646503 -1.74141
upperneck 30.4434 -1.14905 2.01225
head 11.2823 -0.472392 0.905744
rclavicle -3.63093e-015 -6.1996e-015
rhumerus -35.1174 -6.09168 -76.9443
rradius 35.2696
rwrist 24.4203
rhand -23.8391 -26.1657
rfingers 7.12502
rthumb 2.63278 -56.1292
lclavicle -3.63093e-015 -6.1996e-015
lhumerus -37.1627 -7.76274 83.6855
lradius 44.1685
lwrist 30.4708
lhand -24.7554 -10.9156
lfingers 7.12502
lthumb 1.74783 19.057
rfemur -23.4354 -5.9432 19.5657
rtibia 17.4049
rfoot 13.8152 -7.27208
rtoes 9.20865
lfemur -28.4851 8.02542 -15.4626
ltibia 17.3829
lfoot 19.7842 0.0514242
ltoes -0.0613307
351
root 0.235954 22.6029 -1.39665 7.00701 2.2733 -0.960864
lowerback 3.45997 -0.0325045 -0.520642
upperback 3.24229 -0.0591079 0.701869
thorax 1.38729 -0.0466599 1.01256
lowerneck -8.37574 -0.658714 -1.78572
upperneck 30.6703 -1.16559 2.02197
head 11.332 -0.484062 0.91722
rclavicle -7.3923e-015 -4.14963e-015
rhumerus -35.3613 -5.98383 -76.8027
rradius 35.615
rwrist 24.2358
rhand -23.9227 -26.1703
rfingers 7.12502
rthumb 2.55201 -56.1347
lclavicle -7.3923e-015 -4.14963e-015
lhumerus -37.8032 -7.8867 83.4658
lradius 45.161
lwrist 30.8764
lhand -24.6223 -10.8668
lfingers 7.12502
lthumb 1.87639 19.1047
rfemur -23.2719 -5.90248 19.4575
rtibia 17.0865
rfoot 14.0208 -7.42486
rtoes 9.3856
lfemur -28.029 7.96703 -15.5303
ltibia 17.1685
lfoot 20.4216 0.406295
ltoes 0.663881
352
root 0.245669 22.3541 -1.20031 6.69188 2.04821 -0.897092
lowerback 3.11066 0.0521413 -0.431291
upperback 3.19969 0.0561974 0.66469
thorax 1.53624 0.0125981 0.922041
lowerneck -8.1742 -0.665774 -1.8283
upperneck 30.9174 -1.17622 2.03313
head 11.3886 -0.492809 0.929855
rclavicle 1.15544e-015 -4.96962e-015
rhumerus -35.5902 -5.89099 -76.6414
rradius 35.9779
rwrist 24.146
rhand -24.0143 -26.1678
rfingers 7.12502
rthumb 2.46353 -56.1333
lclavicle 1.15544e-015 -4.96962e-015
lhumerus -38.443 -7.98724 83.1793
lradius 46.2185
lwrist 31.3051
lhand -24.53 -10.884
lfingers 7.12502
lthumb 1.96552 19.0867
rfemur -23.1194 -5.84043 19.3413
rtibia 16.9345
rfoot 14.2381 -7.4838
rtoes 9.63602
lfemur -27.5053 7.93959 -15.623
ltibia 17.0102
lfoot 21.1394 0.721032
ltoes 1.63825
353
root 0.255261 22.092 -1.00327 6.36029 1.80036 -0.837164
lowerback 2.76072 0.139899 -0.331756
upperback 3.14795 0.175339 0.626415
thorax 1.67683 0.0741514 0.82576
lowerneck -8.00084 -0.667933 -1.85409
upperneck 31.1975 -1.17979 2.03165
head 11.4639 -0.497881 0.936
rclavicle 9.93923e-017 7.10655e-015
rhumerus -35.7922 -5.81715 -76.4639
rradius 36.3559
rwrist 24.1313
rhand -24.1222 -26.1586
rfingers 7.12502
rthumb 2.3593 -56.1253
lclavicle 9.93923e-017 7.10655e-015
lhumerus -39.0706 -8.06397 82.8244
lradius 47.336
lwrist 31.7552
lhand -24.4861 -10.9237
lfingers 7.12502
lthumb 2.00792 19.0466
rfemur -22.9804 -5.74999 19.2328
rtibia 16.9457
rfoot 14.4895 -7.46879
rtoes 9.98969
lfemur -26.9279 7.95762 -15.7288
ltibia 16.919
lfoot 21.9088 0.920741
ltoes 2.79529
354
root 0.264635 21.8167 -0.805162 5.99949 1.54086 -0.772791
lowerback 2.41637 0.224328 -0.234401
upperback 3.09619 0.289472 0.588016
thorax 1.81508 0.133271 0.731737
lowerneck -7.85254 -0.665431 -1.8797
upperneck 31.4949 -1.17739 2.03178
head 11.5517 -0.50005 0.94356
rclavicle -2.82026e-015 1.44119e-015
rhumerus -35.9496 -5.7626 -76.2733
rradius 36.742
rwrist 24.1458
rhand -24.2218 -26.1628
rfingers 7.12502
rthumb 2.26312 -56.1305
lclavicle -2.82026e-015 1.44119e-015
lhumerus -39.6615 -8.11137 82.3978
lradius 48.4901
lwrist 32.2143
lhand -24.4891 -10.9855
lfingers 7.12502
lthumb 2.00498 18.9849
rfemur -22.8353 -5.66567 19.1275
rtibia 17.1167
rfoot 14.8259 -7.37581
rtoes 10.5344
lfemur -26.2841 8.03575 -15.8614
ltibia 16.8959
lfoot 22.7102 0.933382
ltoes 3.99131
355
root 0.273122 21.5279 -0.607161 5.60431 1.274 -0.717058
lowerback 2.0944 0.302999 -0.139347
upperback 3.04743 0.395281 0.558253
thorax 1.94463 0.188193 0.648845
lowerneck -7.7507 -0.654873 -1.90146
upperneck 31.8126 -1.16253 2.02682
head 11.6572 -0.496692 0.950188
rclavicle -1.51573e-015 -2.03754e-015
rhumerus -36.0585 -5.72551 -76.0717
rradius 37.1402
rwrist 24.1312
rhand -24.3105 -26.183
rfingers 7.12502
rthumb 2.17747 -56.1516
lclavicle -1.51573e-015 -2.03754e-015
lhumerus -40.2096 -8.12094 81.9023
lradius 49.6728
lwrist 32.6598
lhand -24.5357 -11.0484
lfingers 7.12502
lthumb 1.95999 18.9223
rfemur -22.6753 -5.5573 19.034
rtibia 17.4384
rfoot 15.2975 -7.25541
rtoes 11.3935
lfemur -25.5777 8.15586 -15.9948
ltibia 16.9461
lfoot 23.5535 0.768818
ltoes 5.19431
356
root 0.280687 21.2261 -0.409782 5.16634 1.01458 -0.656644
lowerback 1.80787 0.370942 -0.0622388
upperback 3.00447 0.486142 0.536851
thorax 2.06082 0.23527 0.585271
lowerneck -7.66738 -0.640001 -1.94003
upperneck 32.1189 -1.14087 2.03157
head 11.7628 -0.491223 0.964132
rclavicle -1.52816e-015 -2.28602e-015
rhumerus -36.1132 -5.71242 -75.8566
rradius 37.5433
rwrist 24.0475
rhand -24.3915 -26.1992
rfingers 7.12502
rthumb 2.09925 -56.1686
lclavicle -1.52816e-015 -2.28602e-015
lhumerus -40.6943 -8.09931 81.3426
lradius 50.8577
lwrist 33.0803
lhand -24.6406 -11.0724
lfingers 7.12502
lthumb 1.85871 18.8993
rfemur -22.4812 -5.43278 18.9347
rtibia 17.8969
rfoot 15.9506 -7.11293
rtoes 12.6159
lfemur -24.8098 8.31818 -16.1452
ltibia 17.0732
lfoot 24.4606 0.437923
ltoes 6.34697
